<?xml version="1.0" encoding="utf-8"?>
<!-- Generator: Adobe Illustrator 25.0.1, SVG Export Plug-In . SVG Version: 6.00 Build 0)  -->
<svg version="1.1" id="Capa_1" xmlns="http://www.w3.org/2000/svg" xmlns:xlink="http://www.w3.org/1999/xlink" x="0px" y="0px"
	 viewBox="0 0 100 100" style="enable-background:new 0 0 100 100;" xml:space="preserve">
<style type="text/css">
	.st0{fill:#0099D8;}
	.st1{fill:#019AD8;}
	.st2{fill:#0E9FDA;}
	.st3{fill:#0B9EDA;}
	.st4{fill:#0A9DDA;}
</style>
<g>
	<path class="st0" d="M52.77,64.07c0-8.88,0.06-17.76-0.02-26.64c-0.07-7.16-3.23-10.36-10.42-10.51c-2.93-0.06-5.21-0.35-7.35-3
		c-2.61-3.22-7.55-2.73-9.99,0.44c-2.56,3.32-2.53,6.84,0.81,9.53c3.47,2.79,7.46,2.69,9.87-1.2c2.79-4.49,6.68-2.97,10.06-2.35
		c3.4,0.62,4.34,3.78,4.34,7.1c-0.03,18.14,0,36.27-0.05,54.41c0,1.32,0.79,3.52-1.49,3.59c-2.82,0.09-1.71-2.42-1.72-3.79
		c-0.09-13.6-0.03-27.2-0.06-40.81C46.73,42.42,43.55,39.26,35,39.2c-8.37-0.06-16.75-0.16-25.11,0.05
		c-3.73,0.1-4.55-0.66-3.28-4.41C12.81,16.42,32.68,3.22,52.21,4.66c2.87,0.21,3.99,1.01,3.86,4.01
		c-0.22,5.28-0.11,10.58-0.05,15.87c0.09,7.84,3.21,11.05,11.01,11.13c2.77,0.03,4.79,0.44,6.76,2.93c2.8,3.54,6.66,3.32,9.97,0.24
		c2.89-2.69,2.68-7.7-0.48-10.03c-3.58-2.65-7.63-2.63-9.91,1.25c-2.7,4.61-6.43,3.34-9.86,2.57c-3.72-0.83-4.52-4.06-4.43-7.6
		c0.13-4.91,0.28-9.84-0.04-14.73c-0.31-4.8,1.67-4.77,5.36-3.46c17.53,6.2,28.09,18.46,31.17,36.48
		c3.79,22.12-10.08,43.62-31.42,50.43c-4.3,1.37-5.23,0.37-5.11-3.81c0.25-8.12,0.13-16.25,0.06-24.37
		c-0.03-3.43,1.25-6.23,4.66-6.86c3.25-0.6,6.85-1.93,9.4,2.41c2.26,3.84,7.45,4.25,10.31,1.33c2.91-2.97,3.21-6.39,0.47-9.66
		c-2.78-3.33-7.55-3.47-10.33,0.25c-2,2.67-4.22,2.62-6.89,2.68c-7.51,0.16-10.62,3.28-10.71,10.84
		c-0.09,8.31,0.03,16.63-0.08,24.94c-0.02,1.42,1.01,4.01-1.62,3.9c-2.48-0.11-1.5-2.65-1.52-4.14
		C52.73,82.2,52.77,73.13,52.77,64.07z"/>
	<path class="st1" d="M44.07,70.83c0.01,6.99,0.06,13.98-0.04,20.96c-0.02,1.25,0.95,3.45-1.57,3.42c-2.04-0.03-2.06-1.85-2.06-3.4
		c-0.01-9.63,0.03-19.26-0.02-28.9c-0.04-8.8-2.66-11.48-11.49-11.63c-2.42-0.04-4.09-0.53-5.77-2.6
		c-3.05-3.74-7.65-3.84-10.34-0.53c-2.56,3.15-2.78,6.63,0.25,9.69c2.97,3,8.02,2.74,10.34-1.1c2.62-4.33,6.21-2.95,9.5-2.39
		c3.83,0.66,4.77,3.8,4.75,7.34c-0.05,9.63-0.12,19.27,0.05,28.89c0.05,3.01-0.81,3.46-3.56,2.6C15.49,87.43,1.2,64.55,4.19,45.37
		c0.37-2.37,1.23-3.17,3.6-3.14c9.89,0.1,19.78-0.03,29.67,0.09c4.86,0.06,6.53,3.28,6.58,7.55C44.12,56.85,44.06,63.84,44.07,70.83
		z"/>
	<path class="st2" d="M30.29,24.54c2.64,0.54,3.95,1.93,3.89,4.32c-0.07,2.71-1.72,4.22-4.3,4c-2.23-0.19-3.73-1.71-3.7-4.16
		C26.22,25.88,28.26,25.08,30.29,24.54z"/>
	<path class="st3" d="M18.16,48.96c2.36,0.36,3.69,1.68,3.61,4.16c-0.09,2.56-1.79,3.84-4.05,3.77c-2.57-0.08-4.28-1.69-3.99-4.43
		C13.98,50.03,15.75,49.03,18.16,48.96z"/>
	<path class="st3" d="M83.04,33.96c-0.45,2.17-1.44,3.88-3.97,3.97c-2.48,0.1-3.95-1.17-4.08-3.63c-0.14-2.68,1.24-4.38,3.98-4.34
		C81.35,30,82.56,31.7,83.04,33.96z"/>
	<path class="st4" d="M79,53.46c2.37,0.25,4,1.6,3.89,3.92c-0.12,2.46-1.72,4.27-4.43,4.02c-2.36-0.22-3.6-1.88-3.5-4.28
		C75.06,54.63,76.52,53.48,79,53.46z"/>
</g>
</svg>
